<svg width="32" height="42" viewBox="0 0 32 42" fill="none" xmlns="http://www.w3.org/2000/svg">
<path d="M27.2322 15.5H25.9372V10.3333C25.9372 4.6345 21.2907 0 15.5771 0C9.86342 0 5.21689 4.6345 5.21689 10.3333V15.5H3.92187C1.78077 15.5 0.0368042 17.2377 0.0368042 19.375V37.4583C0.0368042 39.5956 1.78077 41.3333 3.92187 41.3333H27.2322C29.3733 41.3333 31.1173 39.5956 31.1173 37.4583V19.375C31.1173 17.2377 29.3733 15.5 27.2322 15.5ZM8.67027 10.3333C8.67027 6.53411 11.768 3.44444 15.5771 3.44444C19.3861 3.44444 22.4838 6.53411 22.4838 10.3333V15.5H8.67027V10.3333ZM17.3037 28.799V32.7222C17.3037 33.6729 16.5319 34.4444 15.5771 34.4444C14.6222 34.4444 13.8504 33.6729 13.8504 32.7222V28.799C12.823 28.2014 12.1237 27.1026 12.1237 25.8333C12.1237 23.9337 13.6725 22.3889 15.5771 22.3889C17.4816 22.3889 19.0304 23.9337 19.0304 25.8333C19.0304 27.1026 18.3311 28.2014 17.3037 28.799Z" fill="#C9AB7B"/>
</svg>
