<svg width="21" height="21" viewBox="0 0 21 21" fill="none" xmlns="http://www.w3.org/2000/svg">
<path fill-rule="evenodd" clip-rule="evenodd" d="M15.2069 2.74979C14.3378 2.45751 13.1539 2.44459 10.5278 2.44459C9.11923 2.44459 8.11277 2.44514 7.31962 2.50074C6.53542 2.55571 6.0329 2.66104 5.62459 2.8348C4.402 3.35509 3.43065 4.35304 2.92423 5.60911C2.75511 6.02861 2.65259 6.54489 2.59908 7.35056C2.54496 8.16544 2.54443 9.19947 2.54443 10.6466C2.54443 12.0938 2.54496 13.1278 2.59908 13.9427C2.65259 14.7483 2.75511 15.2647 2.92423 15.6841C3.43065 16.9402 4.402 17.9381 5.62459 18.4584C6.0329 18.6322 6.53542 18.7375 7.31962 18.7924C8.11277 18.8481 9.11923 18.8486 10.5278 18.8486C11.9364 18.8486 12.9429 18.8481 13.736 18.7924C14.5202 18.7375 15.0227 18.6322 15.431 18.4584C16.6536 17.9381 17.6249 16.9402 18.1314 15.6841C18.3005 15.2647 18.403 14.7483 18.4565 13.9427C18.5107 13.1278 18.5112 12.0938 18.5112 10.6466C18.5112 9.86147 18.5112 9.19465 18.502 8.61261C18.4931 8.04646 18.9327 7.5801 19.4837 7.57099C20.0348 7.56186 20.4887 8.01343 20.4976 8.57959C20.507 9.17988 20.507 9.8626 20.507 10.64V10.6843C20.507 12.0856 20.507 13.1893 20.4477 14.0822C20.3873 14.9923 20.2619 15.7578 19.9753 16.4688C19.2663 18.2273 17.9064 19.6244 16.1948 20.3529C15.5027 20.6473 14.7577 20.7761 13.8718 20.8382C13.0027 20.8991 11.9284 20.8991 10.5646 20.8991H10.491C9.12721 20.8991 8.05281 20.8991 7.18376 20.8382C6.29795 20.7761 5.55285 20.6473 4.86082 20.3529C3.14919 19.6244 1.7893 18.2273 1.08032 16.4688C0.793673 15.7578 0.668305 14.9923 0.607871 14.0822C0.548574 13.1893 0.548584 12.0856 0.548584 10.6843V10.6089C0.548584 9.20767 0.548574 8.10383 0.607871 7.21098C0.668305 6.30091 0.793673 5.5354 1.08032 4.82442C1.7893 3.06591 3.14919 1.66878 4.86082 0.940381C5.55285 0.645877 6.29795 0.517085 7.18375 0.454996C8.05281 0.394075 9.12721 0.394075 10.4911 0.394085H10.5278C10.6 0.394085 10.6716 0.394075 10.7423 0.394065C13.0871 0.393696 14.6158 0.39346 15.8279 0.801018C16.3516 0.977146 16.6373 1.55618 16.4658 2.09432C16.2944 2.63246 15.7308 2.92593 15.2069 2.74979ZM20.371 3.46576C20.6487 3.95487 20.4879 4.58264 20.0118 4.86795L19.7907 5.00051C16.2033 7.15048 13.321 10.3502 11.5119 14.191C11.3712 14.4897 11.0986 14.6999 10.7802 14.7553C10.4617 14.8107 10.1369 14.7044 9.90838 14.4698L5.90327 10.3593C5.51335 9.95918 5.51301 9.31009 5.90252 8.90942C6.29202 8.50885 6.92387 8.5085 7.31379 8.9087L10.3579 12.033C12.3493 8.38708 15.2556 5.34449 18.785 3.22933L19.0062 3.09677C19.4822 2.81147 20.0933 2.97667 20.371 3.46576Z" fill="#C9AB7B"/>
</svg>
